<?xml version="1.0" encoding="utf-8"?>
<!-- Generator: Adobe Illustrator 24.0.0, SVG Export Plug-In . SVG Version: 6.00 Build 0)  -->
<svg version="1.1" id="Layer_1" xmlns="http://www.w3.org/2000/svg" xmlns:xlink="http://www.w3.org/1999/xlink" x="0px" y="0px"
	 viewBox="0 0 612 177.9" style="enable-background:new 0 0 612 177.9;" xml:space="preserve">
<style type="text/css">
	.st0{display:none;fill:#2A2927;}
	<!-- .st1{fill:#F18142;} -->
	.st1{fill:#993365;}
	.st2{fill:#2A2927;}
</style>
<g>
	<path class="st0" d="M544.7-0.5c-0.9,0.5-1.9,0.8-3.1,0.8c-1.6,0-2.9-0.5-3.9-1.6c-1-1-1.5-2.4-1.5-4.1c0-1.9,0.5-3.4,1.6-4.5
		c1.1-1.1,2.5-1.7,4.3-1.7c1,0,1.9,0.2,2.6,0.5v1.9C543.9-9.7,543-10,542-10c-1.2,0-2.1,0.4-2.8,1.2c-0.7,0.8-1.1,1.9-1.1,3.3
		c0,1.3,0.3,2.4,1,3.1c0.7,0.8,1.6,1.1,2.8,1.1c1,0,1.9-0.3,2.8-1L544.7-0.5L544.7-0.5z M249.7-25.3v-15.8h4.5c1.4,0,2.5,0.3,3.3,1
		c0.8,0.7,1.2,1.5,1.2,2.6c0,0.9-0.2,1.7-0.7,2.3c-0.5,0.7-1.1,1.1-2,1.4v0c1.1,0.1,1.9,0.5,2.6,1.2s1,1.6,1,2.6
		c0,1.4-0.5,2.5-1.5,3.3s-2.2,1.3-3.7,1.3L249.7-25.3L249.7-25.3z M418.2-25.8c-0.9,0.5-1.9,0.8-3.1,0.8c-1.6,0-2.9-0.5-3.9-1.6
		c-1-1-1.5-2.4-1.5-4.1c0-1.9,0.5-3.4,1.6-4.5c1.1-1.1,2.5-1.7,4.3-1.7c1,0,1.9,0.2,2.6,0.5v1.9c-0.8-0.6-1.7-0.9-2.7-0.9
		c-1.1,0-2.1,0.4-2.8,1.2c-0.7,0.8-1.1,1.9-1.1,3.3c0,1.3,0.4,2.4,1,3.1c0.7,0.8,1.6,1.1,2.8,1.1c1,0,1.9-0.3,2.8-1V-25.8
		L418.2-25.8z M428-35.1h-3.4v9.8h-1.8v-9.8h-3.4v-1.5h8.6V-35.1L428-35.1z M439.2-36.6L434-23.5c-0.9,2.3-2.2,3.5-3.9,3.5
		c-0.5,0-0.9,0-1.2-0.1v-1.6c0.4,0.1,0.8,0.2,1.1,0.2c0.9,0,1.6-0.5,2-1.6l0.9-2.1l-4.4-11.3h2l3.1,8.7c0,0.1,0.1,0.4,0.2,0.9h0.1
		c0-0.2,0.1-0.5,0.2-0.8l3.2-8.7L439.2-36.6L439.2-36.6z M451-21.2h-1.5v-4.1h-8.4v4.1h-1.5v-5.6h1c1.9-2.8,2.9-6,2.9-9.8h5.9v9.8
		h1.7V-21.2L451-21.2z M447.5-26.9v-8.2H445c-0.2,3-1.1,5.8-2.6,8.2H447.5L447.5-26.9z M462.6-30.5h-8c0,1.3,0.4,2.2,1,2.9
		s1.5,1,2.7,1c1.3,0,2.4-0.4,3.5-1.3v1.7c-1,0.7-2.3,1.1-3.9,1.1c-1.6,0-2.9-0.5-3.8-1.5c-0.9-1-1.4-2.5-1.4-4.3
		c0-1.8,0.5-3.2,1.5-4.3c1-1.1,2.2-1.7,3.7-1.7c1.5,0,2.6,0.5,3.4,1.4c0.8,1,1.2,2.3,1.2,4L462.6-30.5L462.6-30.5z M460.7-32
		c0-1-0.3-1.9-0.8-2.4c-0.5-0.6-1.2-0.9-2.1-0.9c-0.9,0-1.6,0.3-2.2,0.9c-0.6,0.6-1,1.4-1.1,2.4L460.7-32L460.7-32z M474.7-25.3
		h-1.8v-5.1h-5.8v5.1h-1.8v-11.3h1.8v4.6h5.8v-4.6h1.8V-25.3L474.7-25.3z M487.5-25.3h-1.8v-4.5c-1.3,0.7-2.5,1.1-3.7,1.1
		c-2.5,0-3.8-1.3-3.8-4v-3.8h1.8v3.7c0,1.7,0.7,2.5,2.1,2.5c1.1,0,2.3-0.3,3.5-1v-5.3h1.8L487.5-25.3L487.5-25.3z M500.2-30.5h-8
		c0,1.3,0.4,2.2,1,2.9s1.5,1,2.7,1c1.3,0,2.4-0.4,3.5-1.3v1.7c-1,0.7-2.3,1.1-3.9,1.1c-1.6,0-2.9-0.5-3.8-1.5s-1.4-2.5-1.4-4.3
		c0-1.8,0.5-3.2,1.5-4.3c1-1.1,2.2-1.7,3.7-1.7c1.5,0,2.6,0.5,3.4,1.4c0.8,1,1.2,2.3,1.2,4L500.2-30.5L500.2-30.5z M498.3-32
		c0-1-0.3-1.9-0.8-2.4c-0.5-0.6-1.2-0.9-2.1-0.9c-0.9,0-1.6,0.3-2.2,0.9c-0.6,0.6-1,1.4-1.1,2.4L498.3-32L498.3-32z M510.6-25.8
		c-0.9,0.5-1.9,0.8-3.1,0.8c-1.6,0-2.9-0.5-3.9-1.6c-1-1-1.5-2.4-1.5-4.1c0-1.9,0.5-3.4,1.6-4.5s2.5-1.7,4.3-1.7
		c1,0,1.9,0.2,2.6,0.5v1.9c-0.8-0.6-1.7-0.9-2.7-0.9c-1.1,0-2.1,0.4-2.8,1.2c-0.7,0.8-1.1,1.9-1.1,3.3c0,1.3,0.4,2.4,1,3.1
		c0.7,0.8,1.6,1.1,2.8,1.1c1,0,1.9-0.3,2.8-1V-25.8L510.6-25.8z M522.7-25.3h-2.5l-5-5.4h0v5.4h-1.8v-11.3h1.8v5.2h0l4.7-5.2h2.4
		l-5.2,5.5L522.7-25.3L522.7-25.3z M532.7-25.3h-1.8v-1.8h0c-0.8,1.4-2,2-3.5,2c-1.1,0-2-0.3-2.6-0.9c-0.6-0.6-1-1.4-1-2.4
		c0-2.1,1.2-3.3,3.7-3.7l3.4-0.5c0-1.9-0.8-2.9-2.3-2.9c-1.4,0-2.6,0.5-3.7,1.4v-1.9c1.1-0.7,2.4-1.1,3.8-1.1c2.7,0,4,1.4,4,4.2
		L532.7-25.3L532.7-25.3z M530.9-31l-2.7,0.4c-0.8,0.1-1.5,0.3-1.9,0.6c-0.4,0.3-0.6,0.8-0.6,1.6c0,0.5,0.2,1,0.6,1.4
		s0.9,0.5,1.6,0.5c0.9,0,1.6-0.3,2.2-0.9c0.6-0.6,0.9-1.4,0.9-2.4V-31L530.9-31z M543.8-25.3H542V-30h-1.5c-0.7,0-1.4,0.6-2,1.8
		l-1.5,2.9h-2.1l1.9-3.5c0.4-0.8,1-1.3,1.6-1.6c-0.9-0.1-1.6-0.4-2-1s-0.7-1.2-0.7-2c0-1,0.4-1.8,1.1-2.4c0.7-0.6,1.7-0.9,3-0.9h4
		L543.8-25.3L543.8-25.3z M542-31.5v-3.6h-2.1c-1.5,0-2.3,0.6-2.3,1.7c0,1.2,0.7,1.8,2.2,1.8H542L542-31.5z M251.5-39.5v5.1h1.9
		c1,0,1.8-0.3,2.4-0.7c0.6-0.5,0.9-1.2,0.9-2.1c0-1.5-1-2.3-3-2.3L251.5-39.5L251.5-39.5z M251.5-32.7v5.7h2.5
		c1.1,0,1.9-0.3,2.5-0.8c0.6-0.5,0.9-1.2,0.9-2.1c0-1.9-1.3-2.8-3.8-2.8L251.5-32.7L251.5-32.7z M270.1-25.8
		c-0.9,0.5-1.9,0.8-3.1,0.8c-1.6,0-2.9-0.5-3.9-1.6c-1-1-1.5-2.4-1.5-4.1c0-1.9,0.5-3.4,1.6-4.5s2.5-1.7,4.3-1.7
		c1,0,1.9,0.2,2.6,0.5v1.9c-0.8-0.6-1.7-0.9-2.7-0.9c-1.1,0-2.1,0.4-2.8,1.2c-0.7,0.8-1.1,1.9-1.1,3.3c0,1.3,0.4,2.4,1,3.1
		c0.7,0.8,1.6,1.1,2.8,1.1c1,0,1.9-0.3,2.8-1V-25.8L270.1-25.8z M281.9-30.5h-8c0,1.3,0.4,2.2,1,2.9s1.5,1,2.7,1
		c1.3,0,2.4-0.4,3.5-1.3v1.7c-1,0.7-2.3,1.1-3.9,1.1c-1.6,0-2.9-0.5-3.8-1.5c-0.9-1-1.4-2.5-1.4-4.3c0-1.8,0.5-3.2,1.5-4.3
		c1-1.1,2.2-1.7,3.7-1.7c1.5,0,2.6,0.5,3.4,1.4c0.8,1,1.2,2.3,1.2,4L281.9-30.5L281.9-30.5z M280-32c0-1-0.3-1.9-0.8-2.4
		c-0.5-0.6-1.2-0.9-2.1-0.9c-0.9,0-1.6,0.3-2.2,0.9c-0.6,0.6-1,1.4-1.1,2.4L280-32L280-32z M286.5-27L286.5-27l0,6.8h-1.8v-16.5h1.8
		v2h0c0.9-1.5,2.2-2.3,3.9-2.3c1.5,0,2.6,0.5,3.4,1.5c0.8,1,1.2,2.4,1.2,4.1c0,1.9-0.5,3.4-1.4,4.5c-0.9,1.1-2.2,1.7-3.8,1.7
		C288.4-25.1,287.3-25.7,286.5-27L286.5-27z M286.4-31.5v1.6c0,0.9,0.3,1.7,0.9,2.4c0.6,0.6,1.4,1,2.3,1c1.1,0,2-0.4,2.6-1.3
		s0.9-2,0.9-3.5c0-1.3-0.3-2.2-0.9-3c-0.6-0.7-1.4-1.1-2.4-1.1c-1,0-1.9,0.4-2.5,1.1C286.7-33.5,286.4-32.6,286.4-31.5L286.4-31.5z
		 M302.6-25.1c-1.7,0-3-0.5-4-1.6c-1-1-1.5-2.5-1.5-4.2c0-1.9,0.5-3.4,1.5-4.5c1-1.1,2.4-1.6,4.2-1.6c1.7,0,3,0.5,3.9,1.5
		c1,1,1.4,2.5,1.4,4.3c0,1.8-0.5,3.2-1.5,4.3C305.7-25.6,304.3-25.1,302.6-25.1L302.6-25.1z M302.7-35.4c-1.2,0-2.1,0.4-2.8,1.2
		c-0.7,0.8-1,1.9-1,3.3c0,1.3,0.3,2.4,1,3.2c0.7,0.8,1.6,1.2,2.7,1.2c1.2,0,2.1-0.4,2.7-1.1s0.9-1.8,0.9-3.2c0-1.4-0.3-2.5-0.9-3.3
		C304.8-35,303.9-35.4,302.7-35.4L302.7-35.4z M318.8-25.8c-0.9,0.5-1.9,0.8-3.1,0.8c-1.6,0-2.9-0.5-3.9-1.6c-1-1-1.5-2.4-1.5-4.1
		c0-1.9,0.5-3.4,1.6-4.5s2.5-1.7,4.3-1.7c1,0,1.9,0.2,2.6,0.5v1.9c-0.8-0.6-1.7-0.9-2.7-0.9c-1.1,0-2.1,0.4-2.8,1.2
		c-0.7,0.8-1.1,1.9-1.1,3.3c0,1.3,0.4,2.4,1,3.1c0.7,0.8,1.6,1.1,2.8,1.1c1,0,1.9-0.3,2.8-1V-25.8L318.8-25.8z M329.3-25.8
		c-0.9,0.5-1.9,0.8-3.1,0.8c-1.6,0-2.9-0.5-3.9-1.6c-1-1-1.5-2.4-1.5-4.1c0-1.9,0.5-3.4,1.6-4.5s2.5-1.7,4.3-1.7
		c1,0,1.9,0.2,2.6,0.5v1.9c-0.8-0.6-1.7-0.9-2.7-0.9c-1.1,0-2.1,0.4-2.8,1.2c-0.7,0.8-1.1,1.9-1.1,3.3c0,1.3,0.4,2.4,1,3.1
		c0.7,0.8,1.6,1.1,2.8,1.1c1,0,1.9-0.3,2.8-1V-25.8L329.3-25.8z M341.5-25.3h-1.6v-9c-0.2,0.3-0.4,0.8-0.7,1.3l-5.2,7.7H332v-11.3
		h1.7v8.9c0.1-0.2,0.3-0.6,0.6-1.1l5.4-7.8h1.9V-25.3L341.5-25.3z M354.6-25.3h-1.6v-9c-0.2,0.3-0.4,0.8-0.7,1.3l-5.2,7.7h-1.9
		v-11.3h1.7v8.9c0.1-0.2,0.3-0.6,0.6-1.1l5.4-7.8h1.9V-25.3L354.6-25.3z M353.9-42.1c-0.1,1-0.5,1.9-1.3,2.5
		c-0.7,0.6-1.6,0.9-2.7,0.9c-1.1,0-2-0.3-2.7-0.9s-1.1-1.4-1.1-2.5h1.8c0.1,1.4,0.8,2.1,2.1,2.1c0.6,0,1.1-0.2,1.5-0.5
		c0.4-0.4,0.6-0.9,0.7-1.5L353.9-42.1L353.9-42.1z M365.9-25.8c-0.9,0.5-1.9,0.8-3.1,0.8c-1.6,0-2.9-0.5-3.9-1.6
		c-1-1-1.5-2.4-1.5-4.1c0-1.9,0.5-3.4,1.6-4.5s2.5-1.7,4.3-1.7c1,0,1.9,0.2,2.6,0.5v1.9c-0.8-0.6-1.7-0.9-2.7-0.9
		c-1.1,0-2.1,0.4-2.8,1.2c-0.7,0.8-1.1,1.9-1.1,3.3c0,1.3,0.4,2.4,1,3.1c0.7,0.8,1.6,1.1,2.8,1.1c1,0,1.9-0.3,2.8-1V-25.8
		L365.9-25.8z M378-25.3h-2.5l-5-5.4h0v5.4h-1.8v-11.3h1.8v5.2h0l4.7-5.2h2.4l-5.2,5.5L378-25.3L378-25.3z M388-25.3h-1.8v-1.8h0
		c-0.8,1.4-2,2-3.5,2c-1.1,0-2-0.3-2.6-0.9c-0.6-0.6-1-1.4-1-2.4c0-2.1,1.2-3.3,3.7-3.7l3.4-0.5c0-1.9-0.8-2.9-2.3-2.9
		c-1.4,0-2.6,0.5-3.7,1.4v-1.9c1.1-0.7,2.4-1.1,3.8-1.1c2.6,0,4,1.4,4,4.2L388-25.3L388-25.3z M386.2-31l-2.7,0.4
		c-0.8,0.1-1.5,0.3-1.9,0.6c-0.4,0.3-0.6,0.8-0.6,1.6c0,0.5,0.2,1,0.6,1.4c0.4,0.4,0.9,0.5,1.6,0.5c0.9,0,1.6-0.3,2.2-0.9
		c0.6-0.6,0.9-1.4,0.9-2.4V-31L386.2-31z M399.1-25.3h-1.8V-30h-1.5c-0.7,0-1.4,0.6-2,1.8l-1.5,2.9h-2.1l1.9-3.5
		c0.4-0.8,1-1.3,1.6-1.6c-0.9-0.1-1.6-0.4-2-1s-0.7-1.2-0.7-2c0-1,0.4-1.8,1.1-2.4c0.7-0.6,1.7-0.9,3-0.9h4L399.1-25.3L399.1-25.3z
		 M397.3-31.5v-3.6h-2.1c-1.5,0-2.3,0.6-2.3,1.7c0,1.2,0.7,1.8,2.2,1.8H397.3L397.3-31.5z M525.5-6.1v1.6c0,0.9,0.3,1.7,0.9,2.4
		s1.4,1,2.3,1c1.1,0,2-0.4,2.6-1.3c0.6-0.8,0.9-2,0.9-3.5c0-1.3-0.3-2.2-0.9-3C530.8-9.6,530-10,529-10c-1,0-1.9,0.4-2.5,1.1
		C525.9-8.2,525.5-7.3,525.5-6.1L525.5-6.1z M525.6-1.6L525.6-1.6l0,6.8h-1.8v-16.5h1.8v2h0c0.9-1.5,2.2-2.3,3.9-2.3
		c1.5,0,2.6,0.5,3.4,1.5c0.8,1,1.2,2.4,1.2,4.1c0,1.9-0.5,3.4-1.4,4.5c-0.9,1.1-2.2,1.7-3.8,1.7C527.5,0.3,526.4-0.3,525.6-1.6
		L525.6-1.6z M521.8-11.3l-5.2,13.1c-0.9,2.3-2.2,3.5-3.9,3.5c-0.5,0-0.9,0-1.2-0.1V3.6c0.4,0.1,0.8,0.2,1.1,0.2
		c0.9,0,1.6-0.5,2-1.6l0.9-2.1l-4.4-11.3h2l3.1,8.7c0,0.1,0.1,0.4,0.2,0.9h0.1c0-0.2,0.1-0.5,0.2-0.8l3.2-8.7L521.8-11.3L521.8-11.3
		z M511,0h-2.5l-5-5.4h0V0h-1.8v-11.3h1.8v5.2h0l4.7-5.2h2.4l-5.2,5.5L511,0L511,0z M497.9,0h-1.8v-5.1h-5.8V0h-1.8v-11.3h1.8v4.6
		h5.8v-4.6h1.8V0L497.9,0z M480.2-10c-1.2,0-2.1,0.4-2.8,1.2c-0.7,0.8-1,1.9-1,3.3c0,1.3,0.3,2.4,1,3.2c0.7,0.8,1.6,1.2,2.7,1.2
		c1.2,0,2.1-0.4,2.7-1.1s0.9-1.8,0.9-3.2c0-1.4-0.3-2.5-0.9-3.3C482.2-9.6,481.3-10,480.2-10L480.2-10z M480,0.3c-1.7,0-3-0.5-4-1.6
		c-1-1-1.5-2.5-1.5-4.2c0-1.9,0.5-3.4,1.5-4.5c1-1.1,2.4-1.6,4.2-1.6c1.7,0,3,0.5,3.9,1.5c1,1,1.4,2.5,1.4,4.3
		c0,1.8-0.5,3.3-1.5,4.3C483.1-0.2,481.7,0.3,480,0.3L480,0.3z M473.5,0h-2.5l-5-5.4h0V0h-1.8v-11.3h1.8v5.2h0l4.7-5.2h2.4l-5.2,5.5
		L473.5,0L473.5,0z M460.8-5.5h-6V-7h6V-5.5L460.8-5.5z M449.8-5.7l-2.7,0.4c-0.8,0.1-1.5,0.3-1.9,0.6c-0.4,0.3-0.6,0.8-0.6,1.6
		c0,0.5,0.2,1,0.6,1.4c0.4,0.4,0.9,0.5,1.6,0.5c0.9,0,1.6-0.3,2.2-0.9c0.6-0.6,0.9-1.4,0.9-2.4V-5.7L449.8-5.7z M451.6,0h-1.8v-1.8
		h0c-0.8,1.4-2,2-3.5,2c-1.1,0-2-0.3-2.6-0.9c-0.6-0.6-1-1.4-1-2.4c0-2.1,1.2-3.3,3.7-3.7l3.4-0.5c0-1.9-0.8-2.9-2.3-2.9
		c-1.4,0-2.6,0.5-3.7,1.4v-1.9c1.1-0.7,2.4-1.1,3.8-1.1c2.6,0,4,1.4,4,4.2L451.6,0L451.6,0z M441.7,0h-2.5l-5-5.4h0V0h-1.8v-11.3
		h1.8v5.2h0l4.7-5.2h2.4l-5.2,5.5L441.7,0L441.7,0z M422.2-5v3.5h3.1c1.5,0,2.2-0.6,2.2-1.8c0-1.1-0.8-1.7-2.5-1.7L422.2-5L422.2-5z
		 M422.2-9.7v3.2h2.7c1.5,0,2.2-0.6,2.2-1.7c0-1-0.7-1.5-2-1.5L422.2-9.7L422.2-9.7z M420.4,0v-11.3h4.9c1.1,0,2,0.2,2.6,0.7
		c0.6,0.5,1,1.2,1,2c0,1.5-0.7,2.4-2.2,2.7c1.7,0.2,2.6,1.1,2.6,2.6c0,0.9-0.4,1.7-1.1,2.3c-0.7,0.6-1.6,0.9-2.6,0.9L420.4,0
		L420.4,0z M415.1-5.7l-2.7,0.4c-0.8,0.1-1.5,0.3-1.9,0.6c-0.4,0.3-0.6,0.8-0.6,1.6c0,0.5,0.2,1,0.6,1.4c0.4,0.4,0.9,0.5,1.6,0.5
		c0.9,0,1.6-0.3,2.2-0.9c0.6-0.6,0.9-1.4,0.9-2.4V-5.7L415.1-5.7z M417,0h-1.8v-1.8h0c-0.8,1.4-2,2-3.5,2c-1.1,0-2-0.3-2.6-0.9
		c-0.6-0.6-1-1.4-1-2.4c0-2.1,1.2-3.3,3.7-3.7l3.4-0.5c0-1.9-0.8-2.9-2.3-2.9c-1.4,0-2.6,0.5-3.7,1.4v-1.9c1.1-0.7,2.4-1.1,3.8-1.1
		c2.6,0,4,1.4,4,4.2L417,0L417,0z M406.7-9.7h-3.4v9.8h-1.8v-9.8h-3.4v-1.5h8.6V-9.7L406.7-9.7z M396.9-0.5C396,0,395,0.3,393.8,0.3
		c-1.6,0-2.9-0.5-3.9-1.6c-1-1-1.5-2.4-1.5-4.1c0-1.9,0.5-3.4,1.6-4.5s2.5-1.7,4.3-1.7c1,0,1.9,0.2,2.6,0.5v1.9
		c-0.8-0.6-1.7-0.9-2.7-0.9c-1.1,0-2.1,0.4-2.8,1.2s-1.1,1.9-1.1,3.3c0,1.3,0.4,2.4,1,3.1c0.7,0.8,1.6,1.1,2.8,1.1
		c1,0,1.9-0.3,2.8-1V-0.5L396.9-0.5z M375-5.4v3.9h2.7c1.5,0,2.3-0.7,2.3-2c0-1.3-0.8-1.9-2.3-1.9H375L375-5.4z M373.1,0v-11.3h1.8
		v4.3h3c1.2,0,2.1,0.3,2.8,0.9c0.7,0.6,1,1.4,1,2.5c0,1.1-0.3,2-1,2.6c-0.7,0.6-1.5,1-2.6,1L373.1,0L373.1,0z M385.5,0h-1.8v-11.3
		h1.8V0L385.5,0z M363-5v3.5h3.1c1.5,0,2.2-0.6,2.2-1.8c0-1.1-0.8-1.7-2.5-1.7L363-5L363-5z M363-9.7v3.2h2.7c1.5,0,2.2-0.6,2.2-1.7
		c0-1-0.7-1.5-2-1.5L363-9.7L363-9.7z M361.2,0v-11.3h4.9c1.1,0,2,0.2,2.6,0.7c0.6,0.5,1,1.2,1,2c0,1.5-0.7,2.4-2.2,2.7
		c1.7,0.2,2.6,1.1,2.6,2.6c0,0.9-0.4,1.7-1.1,2.3c-0.7,0.6-1.6,0.9-2.6,0.9L361.2,0L361.2,0z M237.2-41.1v15.8h-3.6v-15.8H237.2
		L237.2-41.1z M231.8-41.1l-5.4,15.8h-4l-5.4-15.8h3.8l3.3,11c0.2,0.6,0.3,1.1,0.3,1.6h0.1c0.1-0.5,0.2-1,0.3-1.6l3.3-11L231.8-41.1
		L231.8-41.1z M247.2,100.7c3.6,0,6.6,2.9,6.6,6.6s-2.9,6.6-6.6,6.6s-6.6-2.9-6.6-6.6S243.6,100.7,247.2,100.7L247.2,100.7z"/>
	<path class="st1" d="M269,34l8.5,115.8L287.2,34h5.4l-13.3,143.7h-3.6L264.1,34L269,34L269,34z M317.6,177.6h-4.8V34h4.8V177.6
		L317.6,177.6z M356.6,168.7c0,6-1.6,9-5,9h-9c-3.3,0-5-3-5-9v-37.6h4.8v35.1c0,4.4,1.1,6.6,3.2,6.6h2.8c2.2,0,3.2-2.2,3.2-6.6
		v-54.9c0-2.7-1-4-2.9-4h-6.5c-3.1-2.2-4.6-4.8-4.6-7.8V42.7c0-5.8,2.3-8.8,6.9-8.8h5c4.6,0,6.9,2.9,6.9,8.8v37.6h-4.8V42.7
		c0-2.6-0.6-3.9-2-3.9h-5.3c-1.3,0-2,1.3-2,3.9v55.6c0,2.7,1,4,2.9,4h6.8c2.9,2.2,4.3,4.8,4.3,7.7L356.6,168.7L356.6,168.7z
		 M381.6,166.2c0,4.4,1.1,6.6,3.2,6.6h2.8c2.2,0,3.2-2.2,3.2-6.6v-132h4.8v134.5c0,6-1.6,9-5,9h-9c-3.3,0-5-3-5-9V34.2h4.8
		L381.6,166.2L381.6,166.2z M440,125.1l4.2,52.5h-4.8l-3.4-47.8h-10.8l-4,47.8h-5.4L429.1,34h3.6l7.4,91L440,125.1L440,125.1z
		 M435.6,125l-4.5-63.2l-5.3,63.2H435.6L435.6,125z M469.2,172.8h11.5v4.8h-16.3V34h4.8V172.8L469.2,172.8z M505.7,177.6h-4.8V34
		h4.8V177.6L505.7,177.6z M544.7,168.7c0,6-1.7,9-5,9h-9c-3.3,0-5-3-5-9v-37.6h4.8v35.1c0,4.4,1.1,6.6,3.2,6.6h2.8
		c2.2,0,3.2-2.2,3.2-6.6v-54.9c0-2.7-1-4-2.9-4h-6.5c-3.1-2.2-4.6-4.8-4.6-7.8V42.7c0-5.8,2.3-8.8,6.9-8.8h5c4.6,0,6.9,2.9,6.9,8.8
		v37.6h-4.8V42.7c0-2.6-0.7-3.9-2-3.9h-5.3c-1.3,0-2,1.3-2,3.9v55.6c0,2.7,1,4,2.9,4h6.8c2.9,2.2,4.3,4.8,4.3,7.7L544.7,168.7
		L544.7,168.7z M97.3,140.9l5-52.1l5.1,52.1H97.3L97.3,140.9z M111.9,177.6h19.4L111.9,0H92.7L73.3,177.6h19.4l2.2-17.5h14.9
		L111.9,177.6L111.9,177.6z M156.4,19.8h4.3c1.1-0.1,2.2,0.2,3.3,0.8c2.2,1.3,3.3,3.7,3.3,7.1v56.9c0,3.5-1.1,5.9-3.3,7.1
		c-1.1,0.6-2.2,0.9-3.3,0.8h-4.3V19.8L156.4,19.8z M137,0v177.6h19.4v-64.8h3.2c1.1,0,2.2,0.2,3.3,0.8c1,0.5,1.8,1.3,2.3,2.3
		c0.7,1.3,1,2.9,1,4.8v56.8h19v-52.5V121c-0.1-3-0.3-5.5-0.6-7.5c-0.8-5.3-2.5-9.1-5.2-11.5c2.2-3.1,4-6.8,5.3-10.9
		c1-3.5,1.5-6.5,1.5-9.3v-57c0-2.1,0-4-0.1-5.5c-0.2-4-0.8-7.3-1.6-9.8c-2.1-6.3-7-9.5-14.5-9.5H137L137,0z M237.2,0h-45.1v19.4H205
		v158.3h19.3V19.4h12.9L237.2,0L237.2,0z"/>
	<path class="st2" d="M-4.6,175.8c-0.4,0.4-0.5,1-0.1,1.5c0.4,0.4,1,0.5,1.5,0.1c32.5-27.2,68.6-50.2,107.6-68.2l-0.2-2.2
		C64.7,125.1,28.2,148.3-4.6,175.8L-4.6,175.8z M122.9,101.1c4.7-1.9,9.4-3.8,14.1-5.5v-2.2c-4.8,1.8-9.6,3.6-14.3,5.6L122.9,101.1
		L122.9,101.1z M156.4,88.8c15.9-5.2,32.1-9.5,48.6-13v-2.1c-16.5,3.5-32.8,7.8-48.6,13V88.8L156.4,88.8z M224.3,72.1
		c14-2.4,28.1-4.1,42.5-5.3l-0.2-2c-14.3,1.1-28.4,2.9-42.3,5.2V72.1L224.3,72.1z M271.3,66.5c11.2-0.8,22.4-1.2,33.8-1.2
		c2.5,0,5.1,0,7.6,0.1v-2.1c-2.5,0-5.1-0.1-7.6-0.1c-11.4,0-22.7,0.4-33.9,1.2L271.3,66.5L271.3,66.5z M317.6,65.5
		c6.7,0.2,13.5,0.5,20.1,0.9v-2.1c-6.7-0.4-13.4-0.8-20.1-0.9V65.5L317.6,65.5z M342.5,66.8c3.1,0.2,6.2,0.5,9.2,0.8v-2.1
		c-3.1-0.3-6.1-0.6-9.2-0.8V66.8L342.5,66.8z M356.6,68.1c6.8,0.7,13.5,1.6,20.1,2.6v-2.1c-6.7-1-13.4-1.9-20.1-2.6V68.1L356.6,68.1
		z M381.6,71.4c14.6,2.3,29,5.3,43.2,9l0.2-2.1c-14.2-3.6-28.7-6.6-43.4-9V71.4L381.6,71.4z M429.4,81.6c1,0.3,2.1,0.6,3.1,0.9
		l-0.2-2.2c-0.9-0.3-1.9-0.5-2.8-0.8L429.4,81.6L429.4,81.6z M436.7,83.6c9.4,2.7,18.6,5.6,27.7,8.8v-2.2
		c-9.2-3.2-18.5-6.1-27.9-8.8L436.7,83.6L436.7,83.6z M469.2,94.1c10.7,3.9,21.3,8.2,31.6,12.8v-2.3c-10.1-4.5-20.5-8.7-30.9-12.5
		l-0.6-0.2L469.2,94.1L469.2,94.1z M505.7,109.1c39.1,18,75.3,41,107.9,68.3c0.4,0.4,1.1,0.3,1.5-0.1c0.4-0.4,0.3-1.1-0.1-1.5
		c-33-27.6-69.7-50.9-109.2-69L505.7,109.1L505.7,109.1z"/>
</g>
</svg>
